<svg width="100%" height="100%" viewBox="0 0 24 24" fill="none" xmlns="http://www.w3.org/2000/svg"
    stroke="currentColor" stroke-width="1.5" stroke-linecap="round" stroke-linejoin="round">
    <path
        d="M22 16.92v3a2 2 0 0 1-2.18 2 19.86 19.86 0 0 1-8.63-3.07 19.5 19.5 0 0 1-6-6A19.86 19.86 0 0 1 3.08 4.18 2 2 0 0 1 5 2h3a2 2 0 0 1 2 1.72c.12 1.1.36 2.17.72 3.18a2 2 0 0 1-.45 2.11L9.91 10.09a14 14 0 0 0 5 5l1.08-1.08a2 2 0 0 1 2.11-.45c1.01.36 2.08.6 3.18.72A2 2 0 0 1 22 16.92z" />
</svg>